{
  "source": "C:\\Users\\Peter\\Desktop\\stuff\\MIUN\\quantitative_research\\video_compression\\videos\\HEVC_CLASS_B\\ParkScene_1920x1080_24.y4m",
  "output": "C:\\Users\\Peter\\Desktop\\stuff\\MIUN\\quantitative_research\\video_compression\\compressed_videos\\HEVC_CLASS_B\\hevc\\1\\ParkScene_1920x1080_24_hevc.mp4",
  "codec": "hevc",
  "ok": "Input #0, yuv4mpegpipe, from 'C:\\Users\\Peter\\Desktop\\stuff\\MIUN\\quantitative_research\\video_compression\\videos\\HEVC_CLASS_B\\ParkScene_1920x1080_24.y4m':\n  Duration: 00:00:10.00, start: 0.000000, bitrate: 597198 kb/s\n  Stream #0:0: Video: rawvideo (I420 / 0x30323449), yuv420p(progressive), 1920x1080, 24 fps, 24 tbr, 24 tbn\n[out#0/mp4 @ 000001fb7496a180] Codec AVOption b:a (set bitrate (in bits/s)) has not been used for any stream. The most likely reason is either wrong type (e.g. a video option with no video streams) or that it is a private option of some decoder which was not actually used for any stream.\nStream mapping:\n  Stream #0:0 -> #0:0 (rawvideo (native) -> hevc (libx265))\nPress [q] to stop, [?] for help\n[libx265 @ 000001fb7496c900] Unknown option: \"aq-mode.\nx265 [info]: HEVC encoder version 4.1+190-8f11c33ac\nx265 [info]: build info [Windows][GCC 15.1.0][64 bit] 10bit\nx265 [info]: using cpu capabilities: MMX2 SSE2Fast LZCNT SSSE3 SSE4.2 AVX FMA3 BMI2 AVX2\nx265 [info]: Main 10 profile, Level-4 (Main tier)\nx265 [info]: Thread pool created using 12 threads\nx265 [info]: Slices                              : 1\nx265 [info]: frame threads / pool features       : 3 / wpp(17 rows)\nx265 [info]: Coding QT: max CU size, min CU size : 64 / 8\nx265 [info]: Residual QT: max TU size, max depth : 32 / 1 inter / 1 intra\nx265 [info]: ME / range / subpel / merge         : star / 57 / 3 / 3\nx265 [info]: Keyframe min / max / scenecut / bias  : 24 / 250 / 40 / 5.00 \nx265 [info]: Lookahead / bframes / badapt        : 25 / 4 / 2\nx265 [info]: b-pyramid / weightp / weightb       : 1 / 1 / 0\nx265 [info]: References / ref-limit  cu / depth  : 4 / on / on\nx265 [info]: AQ: mode / str / qg-size / cu-tree  : 2 / 1.0 / 32 / 1\nx265 [info]: Rate Control / qCompress            : ABR-1000 kbps / 0.60\nx265 [info]: VBV/HRD buffer / max-rate / init    : 1000 / 1000 / 0.750\nx265 [info]: tools: rect limit-modes rd=4 psy-rd=2.00 rdoq=2 psy-rdoq=1.00\nx265 [info]: tools: rskip mode=1 signhide tmvp strong-intra-smoothing lslices=4\nx265 [info]: tools: deblock sao dhdr10-info\nOutput #0, mp4, to 'C:\\Users\\Peter\\Desktop\\stuff\\MIUN\\quantitative_research\\video_compression\\compressed_videos\\HEVC_CLASS_B\\hevc\\1\\ParkScene_1920x1080_24_hevc.mp4':\n  Metadata:\n    encoder         : Lavf62.3.100\n  Stream #0:0: Video: hevc (hev1 / 0x31766568), yuv420p10le(tv, progressive), 1920x1080, q=2-31, 1000 kb/s, 24 fps, 12288 tbn\n    Metadata:\n      encoder         : Lavc62.11.100 libx265\n    Side data:\n      cpb: bitrate max/min/avg: 1000000/0/1000000 buffer size: 1000000 vbv_delay: N/A\nframe=    0 fps=0.0 q=0.0 size=       0KiB time=N/A bitrate=N/A speed=N/A elapsed=0:00:00.52    \nframe=    0 fps=0.0 q=0.0 size=       0KiB time=N/A bitrate=N/A speed=N/A elapsed=0:00:01.03    \nframe=    0 fps=0.0 q=0.0 size=       0KiB time=N/A bitrate=N/A speed=N/A elapsed=0:00:01.55    \nframe=    0 fps=0.0 q=0.0 size=       0KiB time=N/A bitrate=N/A speed=N/A elapsed=0:00:02.06    \nframe=    0 fps=0.0 q=0.0 size=       0KiB time=N/A bitrate=N/A speed=N/A elapsed=0:00:02.57    \nframe=    0 fps=0.0 q=0.0 size=       0KiB time=N/A bitrate=N/A speed=N/A elapsed=0:00:03.09    \nframe=    0 fps=0.0 q=0.0 size=       0KiB time=N/A bitrate=N/A speed=N/A elapsed=0:00:03.60    \nframe=    0 fps=0.0 q=0.0 size=       0KiB time=N/A bitrate=N/A speed=N/A elapsed=0:00:04.12    \nframe=    0 fps=0.0 q=0.0 size=       0KiB time=N/A bitrate=N/A speed=N/A elapsed=0:00:04.63    \nframe=    0 fps=0.0 q=0.0 size=       0KiB time=N/A bitrate=N/A speed=N/A elapsed=0:00:05.16    \nframe=    0 fps=0.0 q=0.0 size=       0KiB time=N/A bitrate=N/A speed=N/A elapsed=0:00:05.66    \nframe=    0 fps=0.0 q=0.0 size=       0KiB time=N/A bitrate=N/A speed=N/A elapsed=0:00:06.18    \nframe=    1 fps=0.1 q=38.8 size=       0KiB time=-00:00:00.04 bitrate=N/A speed=N/A elapsed=0:00:06.70    \nframe=    2 fps=0.3 q=45.3 size=       0KiB time=00:00:00.00 bitrate=N/A speed=   0x elapsed=0:00:07.21    \nframe=    3 fps=0.4 q=50.3 size=       0KiB time=00:00:00.04 bitrate=   8.4kbits/s speed=0.00538x elapsed=0:00:07.74    \nframe=    4 fps=0.5 q=51.0 size=       0KiB time=00:00:00.08 bitrate=   4.2kbits/s speed=0.0101x elapsed=0:00:08.25    \nframe=    4 fps=0.5 q=51.0 size=       0KiB time=00:00:00.08 bitrate=   4.2kbits/s speed=0.00951x elapsed=0:00:08.76    \nframe=    4 fps=0.4 q=51.0 size=       0KiB time=00:00:00.08 bitrate=   4.2kbits/s speed=0.00898x elapsed=0:00:09.28    \nframe=    5 fps=0.5 q=47.8 size=       0KiB time=00:00:00.12 bitrate=   2.8kbits/s speed=0.0128x elapsed=0:00:09.79    \nframe=    5 fps=0.5 q=47.8 size=       0KiB time=00:00:00.12 bitrate=   2.8kbits/s speed=0.0121x elapsed=0:00:10.31    \nframe=    5 fps=0.5 q=47.8 size=       0KiB time=00:00:00.12 bitrate=   2.8kbits/s speed=0.0115x elapsed=0:00:10.84    \nframe=    5 fps=0.4 q=47.8 size=       0KiB time=00:00:00.12 bitrate=   2.8kbits/s speed=0.011x elapsed=0:00:11.35    \nframe=    6 fps=0.5 q=41.5 size=       0KiB time=00:00:00.16 bitrate=   2.1kbits/s speed=0.014x elapsed=0:00:11.87    \nframe=    6 fps=0.5 q=41.5 size=       0KiB time=00:00:00.16 bitrate=   2.1kbits/s speed=0.0135x elapsed=0:00:12.39    \nframe=    6 fps=0.5 q=41.5 size=       0KiB time=00:00:00.16 bitrate=   2.1kbits/s speed=0.0129x elapsed=0:00:12.91    \nframe=    7 fps=0.5 q=41.8 size=       0KiB time=00:00:00.20 bitrate=   1.7kbits/s speed=0.0155x elapsed=0:00:13.44    \nframe=    7 fps=0.5 q=41.8 size=       0KiB time=00:00:00.20 bitrate=   1.7kbits/s speed=0.0149x elapsed=0:00:13.95    \nframe=    7 fps=0.5 q=41.8 size=       0KiB time=00:00:00.20 bitrate=   1.7kbits/s speed=0.0144x elapsed=0:00:14.47    \nframe=    7 fps=0.5 q=41.8 size=       0KiB time=00:00:00.20 bitrate=   1.7kbits/s speed=0.0139x elapsed=0:00:14.98    \nframe=    7 fps=0.5 q=41.8 size=       0KiB time=00:00:00.20 bitrate=   1.7kbits/s speed=0.0134x elapsed=0:00:15.49    \nframe=    8 fps=0.5 q=41.9 size=       0KiB time=00:00:00.25 bitrate=   1.4kbits/s speed=0.0156x elapsed=0:00:16.01    \nframe=    8 fps=0.5 q=41.9 size=       0KiB time=00:00:00.25 bitrate=   1.4kbits/s speed=0.0151x elapsed=0:00:16.52    \nframe=    8 fps=0.5 q=41.9 size=       0KiB time=00:00:00.25 bitrate=   1.4kbits/s speed=0.0147x elapsed=0:00:17.04    \nframe=    8 fps=0.5 q=41.9 size=       0KiB time=00:00:00.25 bitrate=   1.4kbits/s speed=0.0142x elapsed=0:00:17.57    \nframe=    8 fps=0.4 q=41.9 size=       0KiB time=00:00:00.25 bitrate=   1.4kbits/s speed=0.0138x elapsed=0:00:18.09    \nframe=    8 fps=0.4 q=41.9 size=       0KiB time=00:00:00.25 bitrate=   1.4kbits/s speed=0.0134x elapsed=0:00:18.60    \nframe=    9 fps=0.5 q=42.1 size=       0KiB time=00:00:00.29 bitrate=   1.2kbits/s speed=0.0152x elapsed=0:00:19.13    \nframe=    9 fps=0.5 q=42.1 size=       0KiB time=00:00:00.29 bitrate=   1.2kbits/s speed=0.0148x elapsed=0:00:19.64    \nframe=   10 fps=0.5 q=40.6 size=       0KiB time=00:00:00.33 bitrate=   1.1kbits/s speed=0.0165x elapsed=0:00:20.16    \nframe=   10 fps=0.5 q=40.6 size=       0KiB time=00:00:00.33 bitrate=   1.1kbits/s speed=0.0161x elapsed=0:00:20.67    \nframe=   10 fps=0.5 q=40.6 size=       0KiB time=00:00:00.33 bitrate=   1.1kbits/s speed=0.0157x elapsed=0:00:21.18    \nframe=   10 fps=0.5 q=40.6 size=       0KiB time=00:00:00.33 bitrate=   1.1kbits/s speed=0.0154x elapsed=0:00:21.70    \nframe=   11 fps=0.5 q=40.8 size=       0KiB time=00:00:00.37 bitrate=   0.9kbits/s speed=0.0169x elapsed=0:00:22.21    \nframe=   11 fps=0.5 q=40.8 size=       0KiB time=00:00:00.37 bitrate=   0.9kbits/s speed=0.0165x elapsed=0:00:22.73    \nframe=   11 fps=0.5 q=40.8 size=       0KiB time=00:00:00.37 bitrate=   0.9kbits/s speed=0.0161x elapsed=0:00:23.25    \nframe=   11 fps=0.5 q=40.8 size=       0KiB time=00:00:00.37 bitrate=   0.9kbits/s speed=0.0158x elapsed=0:00:23.78    \nframe=   11 fps=0.5 q=40.8 size=       0KiB time=00:00:00.37 bitrate=   0.9kbits/s speed=0.0154x elapsed=0:00:24.29    \nframe=   11 fps=0.4 q=40.8 size=       0KiB time=00:00:00.37 bitrate=   0.9kbits/s speed=0.0151x elapsed=0:00:24.82    \nframe=   11 fps=0.4 q=40.8 size=       0KiB time=00:00:00.37 bitrate=   0.9kbits/s speed=0.0148x elapsed=0:00:25.33    \nframe=   11 fps=0.4 q=40.8 size=       0KiB time=00:00:00.37 bitrate=   0.9kbits/s speed=0.0145x elapsed=0:00:25.84    \nframe=   12 fps=0.5 q=42.1 size=       0KiB time=00:00:00.41 bitrate=   0.8kbits/s speed=0.0158x elapsed=0:00:26.36    \nframe=   12 fps=0.4 q=42.1 size=       0KiB time=00:00:00.41 bitrate=   0.8kbits/s speed=0.0155x elapsed=0:00:26.88    \nframe=   12 fps=0.4 q=42.1 size=       0KiB time=00:00:00.41 bitrate=   0.8kbits/s speed=0.0152x elapsed=0:00:27.38    \nframe=   13 fps=0.5 q=41.4 size=       0KiB time=00:00:00.45 bitrate=   0.8kbits/s speed=0.0164x elapsed=0:00:27.90    \nframe=   13 fps=0.5 q=41.4 size=       0KiB time=00:00:00.45 bitrate=   0.8kbits/s speed=0.0161x elapsed=0:00:28.42    \nframe=   13 fps=0.4 q=41.4 size=       0KiB time=00:00:00.45 bitrate=   0.8kbits/s speed=0.0158x elapsed=0:00:28.93    \nframe=   14 fps=0.5 q=38.8 size=       0KiB time=00:00:00.50 bitrate=   0.7kbits/s speed=0.017x elapsed=0:00:29.45    \nframe=   14 fps=0.5 q=38.8 size=       0KiB time=00:00:00.50 bitrate=   0.7kbits/s speed=0.0167x elapsed=0:00:29.97    \nframe=   15 fps=0.5 q=42.2 size=       0KiB time=00:00:00.54 bitrate=   0.6kbits/s speed=0.0178x elapsed=0:00:30.48    \nframe=   15 fps=0.5 q=42.2 size=       0KiB time=00:00:00.54 bitrate=   0.6kbits/s speed=0.0175x elapsed=0:00:31.00    \nframe=   16 fps=0.5 q=41.8 size=       0KiB time=00:00:00.58 bitrate=   0.6kbits/s speed=0.0185x elapsed=0:00:31.51    \nframe=   16 fps=0.5 q=41.8 size=       0KiB time=00:00:00.58 bitrate=   0.6kbits/s speed=0.0182x elapsed=0:00:32.03    \nframe=   16 fps=0.5 q=41.8 size=       0KiB time=00:00:00.58 bitrate=   0.6kbits/s speed=0.0179x elapsed=0:00:32.55    \nframe=   16 fps=0.5 q=41.8 size=       0KiB time=00:00:00.58 bitrate=   0.6kbits/s speed=0.0176x elapsed=0:00:33.08    \nframe=   16 fps=0.5 q=41.8 size=       0KiB time=00:00:00.58 bitrate=   0.6kbits/s speed=0.0174x elapsed=0:00:33.59    \nframe=   16 fps=0.5 q=41.8 size=       0KiB time=00:00:00.58 bitrate=   0.6kbits/s speed=0.0171x elapsed=0:00:34.10    \nframe=   17 fps=0.5 q=43.5 size=       0KiB time=00:00:00.62 bitrate=   0.6kbits/s speed=0.018x elapsed=0:00:34.62    \nframe=   17 fps=0.5 q=43.5 size=       0KiB time=00:00:00.62 bitrate=   0.6kbits/s speed=0.0178x elapsed=0:00:35.14    \nframe=   17 fps=0.5 q=43.5 size=       0KiB time=00:00:00.62 bitrate=   0.6kbits/s speed=0.0175x elapsed=0:00:35.65    \nframe=   17 fps=0.5 q=43.5 size=       0KiB time=00:00:00.62 bitrate=   0.6kbits/s speed=0.0173x elapsed=0:00:36.17    \nframe=   17 fps=0.5 q=43.5 size=       0KiB time=00:00:00.62 bitrate=   0.6kbits/s speed=0.017x elapsed=0:00:36.69    \nframe=   17 fps=0.5 q=43.5 size=       0KiB time=00:00:00.62 bitrate=   0.6kbits/s speed=0.0168x elapsed=0:00:37.20    \nframe=   18 fps=0.5 q=43.2 size=       0KiB time=00:00:00.66 bitrate=   0.5kbits/s speed=0.0177x elapsed=0:00:37.72    \nframe=   18 fps=0.5 q=43.2 size=       0KiB time=00:00:00.66 bitrate=   0.5kbits/s speed=0.0174x elapsed=0:00:38.24    \nframe=   18 fps=0.5 q=43.2 size=       0KiB time=00:00:00.66 bitrate=   0.5kbits/s speed=0.0172x elapsed=0:00:38.76    \nframe=   18 fps=0.5 q=43.2 size=       0KiB time=00:00:00.66 bitrate=   0.5kbits/s speed=0.017x elapsed=0:00:39.29    \nframe=   19 fps=0.5 q=37.0 size=       0KiB time=00:00:00.70 bitrate=   0.5kbits/s speed=0.0178x elapsed=0:00:39.80    \nframe=   19 fps=0.5 q=37.0 size=       0KiB time=00:00:00.70 bitrate=   0.5kbits/s speed=0.0176x elapsed=0:00:40.31    \nframe=   20 fps=0.5 q=41.7 size=       0KiB time=00:00:00.75 bitrate=   0.5kbits/s speed=0.0184x elapsed=0:00:40.82    \nframe=   20 fps=0.5 q=41.7 size=       0KiB time=00:00:00.75 bitrate=   0.5kbits/s speed=0.0181x elapsed=0:00:41.34    \nframe=   20 fps=0.5 q=41.7 size=       0KiB time=00:00:00.75 bitrate=   0.5kbits/s speed=0.0179x elapsed=0:00:41.86    \nframe=   20 fps=0.5 q=41.7 size=       0KiB time=00:00:00.75 bitrate=   0.5kbits/s speed=0.0177x elapsed=0:00:42.37    \nframe=   20 fps=0.5 q=41.7 size=       0KiB time=00:00:00.75 bitrate=   0.5kbits/s speed=0.0175x elapsed=0:00:42.89    \nframe=   20 fps=0.5 q=41.7 size=       0KiB time=00:00:00.75 bitrate=   0.5kbits/s speed=0.0173x elapsed=0:00:43.41    \nframe=   20 fps=0.5 q=41.7 size=       0KiB time=00:00:00.75 bitrate=   0.5kbits/s speed=0.0171x elapsed=0:00:43.93    \nframe=   20 fps=0.4 q=41.7 size=       0KiB time=00:00:00.75 bitrate=   0.5kbits/s speed=0.0169x elapsed=0:00:44.45    \nframe=   20 fps=0.4 q=41.7 size=       0KiB time=00:00:00.75 bitrate=   0.5kbits/s speed=0.0167x elapsed=0:00:44.97    \nframe=   20 fps=0.4 q=41.7 size=       0KiB time=00:00:00.75 bitrate=   0.5kbits/s speed=0.0165x elapsed=0:00:45.48    \nframe=   21 fps=0.5 q=43.3 size=       0KiB time=00:00:00.79 bitrate=   0.4kbits/s speed=0.0172x elapsed=0:00:45.99    \nframe=   21 fps=0.5 q=43.3 size=       0KiB time=00:00:00.79 bitrate=   0.4kbits/s speed=0.017x elapsed=0:00:46.51    \nframe=   22 fps=0.5 q=44.7 size=       0KiB time=00:00:00.83 bitrate=   0.4kbits/s speed=0.0177x elapsed=0:00:47.03    \nframe=   22 fps=0.5 q=44.7 size=       0KiB time=00:00:00.83 bitrate=   0.4kbits/s speed=0.0175x elapsed=0:00:47.54    \nframe=   23 fps=0.5 q=37.2 size=       0KiB time=00:00:00.87 bitrate=   0.4kbits/s speed=0.0182x elapsed=0:00:48.06    \nframe=   23 fps=0.5 q=37.2 size=       0KiB time=00:00:00.87 bitrate=   0.4kbits/s speed=0.018x elapsed=0:00:48.57    \nframe=   24 fps=0.5 q=41.4 size=       0KiB time=00:00:00.91 bitrate=   0.4kbits/s speed=0.0187x elapsed=0:00:49.09    \nframe=   24 fps=0.5 q=41.4 size=       0KiB time=00:00:00.91 bitrate=   0.4kbits/s speed=0.0185x elapsed=0:00:49.60    \nframe=   25 fps=0.5 q=44.2 size=       0KiB time=00:00:00.95 bitrate=   0.4kbits/s speed=0.0191x elapsed=0:00:50.13    \nframe=   25 fps=0.5 q=44.2 size=       0KiB time=00:00:00.95 bitrate=   0.4kbits/s speed=0.0189x elapsed=0:00:50.64    \nframe=   25 fps=0.5 q=44.2 size=       0KiB time=00:00:00.95 bitrate=   0.4kbits/s speed=0.0187x elapsed=0:00:51.15    \nframe=   25 fps=0.5 q=44.2 size=       0KiB time=00:00:00.95 bitrate=   0.4kbits/s speed=0.0185x elapsed=0:00:51.67    \nframe=   26 fps=0.5 q=43.7 size=       0KiB time=00:00:01.00 bitrate=   0.4kbits/s speed=0.0192x elapsed=0:00:52.19    \nframe=   26 fps=0.5 q=43.7 size=       0KiB time=00:00:01.00 bitrate=   0.4kbits/s speed=0.019x elapsed=0:00:52.70    \nframe=   26 fps=0.5 q=43.7 size=       0KiB time=00:00:01.00 bitrate=   0.4kbits/s speed=0.0188x elapsed=0:00:53.21    \nframe=   26 fps=0.5 q=43.7 size=       0KiB time=00:00:01.00 bitrate=   0.4kbits/s speed=0.0186x elapsed=0:00:53.73    \nframe=   27 fps=0.5 q=43.6 size=       0KiB time=00:00:01.04 bitrate=   0.3kbits/s speed=0.0192x elapsed=0:00:54.24    \nframe=   27 fps=0.5 q=43.6 size=       0KiB time=00:00:01.04 bitrate=   0.3kbits/s speed=0.019x elapsed=0:00:54.77    \nframe=   27 fps=0.5 q=43.6 size=       0KiB time=00:00:01.04 bitrate=   0.3kbits/s speed=0.0188x elapsed=0:00:55.30    \nframe=   27 fps=0.5 q=43.6 size=       0KiB time=00:00:01.04 bitrate=   0.3kbits/s speed=0.0187x elapsed=0:00:55.81    \nframe=   27 fps=0.5 q=43.6 size=       0KiB time=00:00:01.04 bitrate=   0.3kbits/s speed=0.0185x elapsed=0:00:56.32    \nframe=   27 fps=0.5 q=43.6 size=       0KiB time=00:00:01.04 bitrate=   0.3kbits/s speed=0.0183x elapsed=0:00:56.84    \nframe=   27 fps=0.5 q=43.6 size=       0KiB time=00:00:01.04 bitrate=   0.3kbits/s speed=0.0182x elapsed=0:00:57.36    \nframe=   27 fps=0.5 q=43.6 size=       0KiB time=00:00:01.04 bitrate=   0.3kbits/s speed=0.018x elapsed=0:00:57.88    \nframe=   28 fps=0.5 q=36.9 size=       0KiB time=00:00:01.08 bitrate=   0.3kbits/s speed=0.0186x elapsed=0:00:58.39    \nframe=   29 fps=0.5 q=41.7 size=       0KiB time=00:00:01.12 bitrate=   0.3kbits/s speed=0.0191x elapsed=0:00:58.90    \nframe=   29 fps=0.5 q=41.7 size=       0KiB time=00:00:01.12 bitrate=   0.3kbits/s speed=0.0189x elapsed=0:00:59.42    \nframe=   29 fps=0.5 q=41.7 size=       0KiB time=00:00:01.12 bitrate=   0.3kbits/s speed=0.0188x elapsed=0:00:59.93    \nframe=   30 fps=0.5 q=43.7 size=       0KiB time=00:00:01.16 bitrate=   0.3kbits/s speed=0.0193x elapsed=0:01:00.45    \nframe=   30 fps=0.5 q=43.7 size=       0KiB time=00:00:01.16 bitrate=   0.3kbits/s speed=0.0191x elapsed=0:01:00.96    \nframe=   32 fps=0.5 q=37.0 size=       0KiB time=00:00:01.25 bitrate=   0.3kbits/s speed=0.0203x elapsed=0:01:01.48    \nframe=   32 fps=0.5 q=37.0 size=       0KiB time=00:00:01.25 bitrate=   0.3kbits/s speed=0.0202x elapsed=0:01:02.00    \nframe=   33 fps=0.5 q=41.4 size=       0KiB time=00:00:01.29 bitrate=   0.3kbits/s speed=0.0207x elapsed=0:01:02.52    \nframe=   33 fps=0.5 q=41.4 size=       0KiB time=00:00:01.29 bitrate=   0.3kbits/s speed=0.0205x elapsed=0:01:03.03    \nframe=   34 fps=0.5 q=43.7 size=       0KiB time=00:00:01.33 bitrate=   0.3kbits/s speed=0.021x elapsed=0:01:03.54    \nframe=   34 fps=0.5 q=43.7 size=       0KiB time=00:00:01.33 bitrate=   0.3kbits/s speed=0.0208x elapsed=0:01:04.06    \nframe=   35 fps=0.5 q=42.6 size=       0KiB time=00:00:01.37 bitrate=   0.3kbits/s speed=0.0213x elapsed=0:01:04.58    \nframe=   36 fps=0.6 q=36.6 size=       0KiB time=00:00:01.41 bitrate=   0.2kbits/s speed=0.0218x elapsed=0:01:05.10    \nframe=   37 fps=0.6 q=41.2 size=       0KiB time=00:00:01.45 bitrate=   0.2kbits/s speed=0.0222x elapsed=0:01:05.61    \nframe=   37 fps=0.6 q=41.2 size=       0KiB time=00:00:01.45 bitrate=   0.2kbits/s speed=0.0221x elapsed=0:01:06.13    \nframe=   37 fps=0.6 q=41.2 size=       0KiB time=00:00:01.45 bitrate=   0.2kbits/s speed=0.0219x elapsed=0:01:06.65    \nframe=   38 fps=0.6 q=43.2 size=       0KiB time=00:00:01.50 bitrate=   0.2kbits/s speed=0.0223x elapsed=0:01:07.15    \nframe=   38 fps=0.6 q=43.2 size=       0KiB time=00:00:01.50 bitrate=   0.2kbits/s speed=0.0222x elapsed=0:01:07.67    \nframe=   39 fps=0.6 q=43.6 size=       0KiB time=00:00:01.54 bitrate=   0.2kbits/s speed=0.0226x elapsed=0:01:08.19    \nframe=   41 fps=0.6 q=41.1 size=       0KiB time=00:00:01.62 bitrate=   0.2kbits/s speed=0.0237x elapsed=0:01:08.70    \nframe=   41 fps=0.6 q=41.1 size=       0KiB time=00:00:01.62 bitrate=   0.2kbits/s speed=0.0235x elapsed=0:01:09.21    \nframe=   41 fps=0.6 q=41.1 size=       0KiB time=00:00:01.62 bitrate=   0.2kbits/s speed=0.0233x elapsed=0:01:09.74    \nframe=   42 fps=0.6 q=43.4 size=       0KiB time=00:00:01.66 bitrate=   0.2kbits/s speed=0.0237x elapsed=0:01:10.25    \nframe=   43 fps=0.6 q=43.6 size=       0KiB time=00:00:01.70 bitrate=   0.2kbits/s speed=0.0241x elapsed=0:01:10.76    \nframe=   44 fps=0.6 q=37.1 size=       0KiB time=00:00:01.75 bitrate=   0.2kbits/s speed=0.0246x elapsed=0:01:11.28    \nframe=   45 fps=0.6 q=41.0 size=       0KiB time=00:00:01.79 bitrate=   0.2kbits/s speed=0.025x elapsed=0:01:11.80    \nframe=   45 fps=0.6 q=41.0 size=       0KiB time=00:00:01.79 bitrate=   0.2kbits/s speed=0.0248x elapsed=0:01:12.31    \nframe=   45 fps=0.6 q=41.0 size=       0KiB time=00:00:01.79 bitrate=   0.2kbits/s speed=0.0246x elapsed=0:01:12.82    \nframe=   46 fps=0.6 q=43.3 size=       0KiB time=00:00:01.83 bitrate=   0.2kbits/s speed=0.025x elapsed=0:01:13.34    \nframe=   46 fps=0.6 q=43.3 size=       0KiB time=00:00:01.83 bitrate=   0.2kbits/s speed=0.0248x elapsed=0:01:13.86    \nframe=   47 fps=0.6 q=43.0 size=       0KiB time=00:00:01.87 bitrate=   0.2kbits/s speed=0.0252x elapsed=0:01:14.37    \nframe=   49 fps=0.7 q=42.1 size=       0KiB time=00:00:01.95 bitrate=   0.2kbits/s speed=0.0261x elapsed=0:01:14.89    \nframe=   50 fps=0.7 q=42.9 size=       0KiB time=00:00:02.00 bitrate=   0.2kbits/s speed=0.0265x elapsed=0:01:15.40    \nframe=   50 fps=0.7 q=42.9 size=       0KiB time=00:00:02.00 bitrate=   0.2kbits/s speed=0.0263x elapsed=0:01:15.92    \nframe=   51 fps=0.7 q=43.5 size=       0KiB time=00:00:02.04 bitrate=   0.2kbits/s speed=0.0267x elapsed=0:01:16.44    \nframe=   51 fps=0.7 q=43.5 size=       0KiB time=00:00:02.04 bitrate=   0.2kbits/s speed=0.0265x elapsed=0:01:16.95    \nframe=   52 fps=0.7 q=43.9 size=       0KiB time=00:00:02.08 bitrate=   0.2kbits/s speed=0.0269x elapsed=0:01:17.47    \nframe=   53 fps=0.7 q=37.3 size=       0KiB time=00:00:02.12 bitrate=   0.2kbits/s speed=0.0272x elapsed=0:01:17.99    \nframe=   53 fps=0.7 q=37.3 size=       0KiB time=00:00:02.12 bitrate=   0.2kbits/s speed=0.0271x elapsed=0:01:18.50    \nframe=   54 fps=0.7 q=41.2 size=     256KiB time=00:00:02.16 bitrate= 968.1kbits/s speed=0.0274x elapsed=0:01:19.02    \nframe=   54 fps=0.7 q=41.2 size=     256KiB time=00:00:02.16 bitrate= 968.1kbits/s speed=0.0272x elapsed=0:01:19.53    \nframe=   55 fps=0.7 q=43.6 size=     256KiB time=00:00:02.20 bitrate= 949.8kbits/s speed=0.0276x elapsed=0:01:20.05    \nframe=   56 fps=0.7 q=42.7 size=     256KiB time=00:00:02.25 bitrate= 932.2kbits/s speed=0.0279x elapsed=0:01:20.56    \nframe=   57 fps=0.7 q=36.8 size=     256KiB time=00:00:02.29 bitrate= 915.3kbits/s speed=0.0283x elapsed=0:01:21.07    \nframe=   57 fps=0.7 q=36.8 size=     256KiB time=00:00:02.29 bitrate= 915.3kbits/s speed=0.0281x elapsed=0:01:21.59    \nframe=   58 fps=0.7 q=41.1 size=     256KiB time=00:00:02.33 bitrate= 898.9kbits/s speed=0.0284x elapsed=0:01:22.11    \nframe=   58 fps=0.7 q=41.1 size=     256KiB time=00:00:02.33 bitrate= 898.9kbits/s speed=0.0282x elapsed=0:01:22.62    \nframe=   59 fps=0.7 q=43.6 size=     256KiB time=00:00:02.37 bitrate= 883.2kbits/s speed=0.0286x elapsed=0:01:23.13    \nframe=   60 fps=0.7 q=43.8 size=     256KiB time=00:00:02.41 bitrate= 867.9kbits/s speed=0.0289x elapsed=0:01:23.66    \nframe=   61 fps=0.7 q=37.0 size=     256KiB time=00:00:02.45 bitrate= 853.2kbits/s speed=0.0292x elapsed=0:01:24.17    \nframe=   61 fps=0.7 q=37.0 size=     256KiB time=00:00:02.45 bitrate= 853.2kbits/s speed=0.029x elapsed=0:01:24.69    \nframe=   61 fps=0.7 q=37.0 size=     256KiB time=00:00:02.45 bitrate= 853.2kbits/s speed=0.0288x elapsed=0:01:25.21    \nframe=   61 fps=0.7 q=37.0 size=     256KiB time=00:00:02.45 bitrate= 853.2kbits/s speed=0.0287x elapsed=0:01:25.72    \nframe=   62 fps=0.7 q=41.3 size=     256KiB time=00:00:02.50 bitrate= 839.0kbits/s speed=0.029x elapsed=0:01:26.23    \nframe=   62 fps=0.7 q=41.3 size=     256KiB time=00:00:02.50 bitrate= 839.0kbits/s speed=0.0288x elapsed=0:01:26.75    \nframe=   62 fps=0.7 q=41.3 size=     256KiB time=00:00:02.50 bitrate= 839.0kbits/s speed=0.0286x elapsed=0:01:27.27    \nframe=   62 fps=0.7 q=41.3 size=     256KiB time=00:00:02.50 bitrate= 839.0kbits/s speed=0.0285x elapsed=0:01:27.77    \nframe=   62 fps=0.7 q=41.3 size=     256KiB time=00:00:02.50 bitrate= 839.0kbits/s speed=0.0283x elapsed=0:01:28.29    \nframe=   63 fps=0.7 q=43.9 size=     256KiB time=00:00:02.54 bitrate= 825.2kbits/s speed=0.0286x elapsed=0:01:28.81    \nframe=   63 fps=0.7 q=43.9 size=     256KiB time=00:00:02.54 bitrate= 825.2kbits/s speed=0.0285x elapsed=0:01:29.33    \nframe=   63 fps=0.7 q=43.9 size=     256KiB time=00:00:02.54 bitrate= 825.2kbits/s speed=0.0283x elapsed=0:01:29.84    \nframe=   64 fps=0.7 q=42.7 size=     256KiB time=00:00:02.58 bitrate= 811.9kbits/s speed=0.0286x elapsed=0:01:30.35    \nframe=   64 fps=0.7 q=42.7 size=     256KiB time=00:00:02.58 bitrate= 811.9kbits/s speed=0.0284x elapsed=0:01:30.87    \nframe=   64 fps=0.7 q=42.7 size=     256KiB time=00:00:02.58 bitrate= 811.9kbits/s speed=0.0283x elapsed=0:01:31.39    \nframe=   64 fps=0.7 q=42.7 size=     256KiB time=00:00:02.58 bitrate= 811.9kbits/s speed=0.0281x elapsed=0:01:31.91    \nframe=   64 fps=0.7 q=42.7 size=     256KiB time=00:00:02.58 bitrate= 811.9kbits/s speed=0.0279x elapsed=0:01:32.43    \nframe=   65 fps=0.7 q=37.0 size=     256KiB time=00:00:02.62 bitrate= 799.0kbits/s speed=0.0282x elapsed=0:01:32.95    \nframe=   66 fps=0.7 q=41.5 size=     256KiB time=00:00:02.66 bitrate= 786.6kbits/s speed=0.0285x elapsed=0:01:33.47    \nframe=   66 fps=0.7 q=41.5 size=     256KiB time=00:00:02.66 bitrate= 786.6kbits/s speed=0.0284x elapsed=0:01:33.98    \nframe=   66 fps=0.7 q=41.5 size=     256KiB time=00:00:02.66 bitrate= 786.6kbits/s speed=0.0282x elapsed=0:01:34.50    \nframe=   66 fps=0.7 q=41.5 size=     256KiB time=00:00:02.66 bitrate= 786.6kbits/s speed=0.0281x elapsed=0:01:35.01    \nframe=   67 fps=0.7 q=43.5 size=     256KiB time=00:00:02.70 bitrate= 774.5kbits/s speed=0.0284x elapsed=0:01:35.53    \nframe=   68 fps=0.7 q=43.0 size=     256KiB time=00:00:02.75 bitrate= 762.7kbits/s speed=0.0286x elapsed=0:01:36.05    \nframe=   68 fps=0.7 q=43.0 size=     256KiB time=00:00:02.75 bitrate= 762.7kbits/s speed=0.0285x elapsed=0:01:36.56    \nframe=   68 fps=0.7 q=43.0 size=     256KiB time=00:00:02.75 bitrate= 762.7kbits/s speed=0.0283x elapsed=0:01:37.08    \nframe=   69 fps=0.7 q=36.1 size=     256KiB time=00:00:02.79 bitrate= 751.3kbits/s speed=0.0286x elapsed=0:01:37.60    \nframe=   69 fps=0.7 q=36.1 size=     256KiB time=00:00:02.79 bitrate= 751.3kbits/s speed=0.0285x elapsed=0:01:38.10    \nframe=   69 fps=0.7 q=36.1 size=     256KiB time=00:00:02.79 bitrate= 751.3kbits/s speed=0.0283x elapsed=0:01:38.62    \nframe=   70 fps=0.7 q=41.2 size=     256KiB time=00:00:02.83 bitrate= 740.3kbits/s speed=0.0286x elapsed=0:01:39.14    \nframe=   70 fps=0.7 q=41.2 size=     256KiB time=00:00:02.83 bitrate= 740.3kbits/s speed=0.0284x elapsed=0:01:39.65    \nframe=   70 fps=0.7 q=41.2 size=     256KiB time=00:00:02.83 bitrate= 740.3kbits/s speed=0.0283x elapsed=0:01:40.16    \nframe=   71 fps=0.7 q=42.6 size=     256KiB time=00:00:02.87 bitrate= 729.6kbits/s speed=0.0286x elapsed=0:01:40.68    \nframe=   71 fps=0.7 q=42.6 size=     256KiB time=00:00:02.87 bitrate= 729.6kbits/s speed=0.0284x elapsed=0:01:41.20    \nframe=   71 fps=0.7 q=42.6 size=     256KiB time=00:00:02.87 bitrate= 729.6kbits/s speed=0.0283x elapsed=0:01:41.72    \nframe=   71 fps=0.7 q=42.6 size=     256KiB time=00:00:02.87 bitrate= 729.6kbits/s speed=0.0281x elapsed=0:01:42.23    \nframe=   71 fps=0.7 q=42.6 size=     256KiB time=00:00:02.87 bitrate= 729.6kbits/s speed=0.028x elapsed=0:01:42.75    \nframe=   71 fps=0.7 q=42.6 size=     256KiB time=00:00:02.87 bitrate= 729.6kbits/s speed=0.0278x elapsed=0:01:43.26    \nframe=   71 fps=0.7 q=42.6 size=     256KiB time=00:00:02.87 bitrate= 729.6kbits/s speed=0.0277x elapsed=0:01:43.78    \nframe=   71 fps=0.7 q=42.6 size=     256KiB time=00:00:02.87 bitrate= 729.6kbits/s speed=0.0276x elapsed=0:01:44.31    \nframe=   71 fps=0.7 q=42.6 size=     256KiB time=00:00:02.87 bitrate= 729.6kbits/s speed=0.0274x elapsed=0:01:44.83    \nframe=   71 fps=0.7 q=42.6 size=     256KiB time=00:00:02.87 bitrate= 729.6kbits/s speed=0.0273x elapsed=0:01:45.36    \nframe=   71 fps=0.7 q=42.6 size=     256KiB time=00:00:02.87 bitrate= 729.6kbits/s speed=0.0272x elapsed=0:01:45.89    \nframe=   71 fps=0.7 q=42.6 size=     256KiB time=00:00:02.87 bitrate= 729.6kbits/s speed=0.027x elapsed=0:01:46.43    \nframe=   71 fps=0.7 q=42.6 size=     256KiB time=00:00:02.87 bitrate= 729.6kbits/s speed=0.0269x elapsed=0:01:46.95    \nframe=   71 fps=0.7 q=42.6 size=     256KiB time=00:00:02.87 bitrate= 729.6kbits/s speed=0.0268x elapsed=0:01:47.46    \nframe=   72 fps=0.7 q=43.1 size=     256KiB time=00:00:02.91 bitrate= 719.1kbits/s speed=0.027x elapsed=0:01:47.99    \nframe=   72 fps=0.7 q=43.1 size=     256KiB time=00:00:02.91 bitrate= 719.1kbits/s speed=0.0269x elapsed=0:01:48.51    \nframe=   72 fps=0.7 q=43.1 size=     256KiB time=00:00:02.91 bitrate= 719.1kbits/s speed=0.0268x elapsed=0:01:49.03    \nframe=   72 fps=0.7 q=43.1 size=     256KiB time=00:00:02.91 bitrate= 719.1kbits/s speed=0.0266x elapsed=0:01:49.54    \nframe=   72 fps=0.7 q=43.1 size=     256KiB time=00:00:02.91 bitrate= 719.1kbits/s speed=0.0265x elapsed=0:01:50.06    \nframe=   72 fps=0.7 q=43.1 size=     256KiB time=00:00:02.91 bitrate= 719.1kbits/s speed=0.0264x elapsed=0:01:50.60    \nframe=   72 fps=0.6 q=43.1 size=     256KiB time=00:00:02.91 bitrate= 719.1kbits/s speed=0.0262x elapsed=0:01:51.12    \nframe=   72 fps=0.6 q=43.1 size=     256KiB time=00:00:02.91 bitrate= 719.1kbits/s speed=0.0261x elapsed=0:01:51.64    \nframe=   72 fps=0.6 q=43.1 size=     256KiB time=00:00:02.91 bitrate= 719.1kbits/s speed=0.026x elapsed=0:01:52.17    \nframe=   72 fps=0.6 q=43.1 size=     256KiB time=00:00:02.91 bitrate= 719.1kbits/s speed=0.0259x elapsed=0:01:52.69    \nframe=   72 fps=0.6 q=43.1 size=     256KiB time=00:00:02.91 bitrate= 719.1kbits/s speed=0.0258x elapsed=0:01:53.20    \nframe=   72 fps=0.6 q=43.1 size=     256KiB time=00:00:02.91 bitrate= 719.1kbits/s speed=0.0256x elapsed=0:01:53.71    \nframe=   72 fps=0.6 q=43.1 size=     256KiB time=00:00:02.91 bitrate= 719.1kbits/s speed=0.0255x elapsed=0:01:54.23    \nframe=   73 fps=0.6 q=43.8 size=     256KiB time=00:00:02.95 bitrate= 709.0kbits/s speed=0.0258x elapsed=0:01:54.75    \nframe=   74 fps=0.6 q=37.2 size=     256KiB time=00:00:03.00 bitrate= 699.2kbits/s speed=0.026x elapsed=0:01:55.26    \nframe=   74 fps=0.6 q=37.2 size=     256KiB time=00:00:03.00 bitrate= 699.2kbits/s speed=0.0259x elapsed=0:01:55.77    \nframe=   74 fps=0.6 q=37.2 size=     256KiB time=00:00:03.00 bitrate= 699.2kbits/s speed=0.0258x elapsed=0:01:56.30    \nframe=   74 fps=0.6 q=37.2 size=     256KiB time=00:00:03.00 bitrate= 699.2kbits/s speed=0.0257x elapsed=0:01:56.82    \nframe=   74 fps=0.6 q=37.2 size=     256KiB time=00:00:03.00 bitrate= 699.2kbits/s speed=0.0256x elapsed=0:01:57.34    \nframe=   75 fps=0.6 q=38.2 size=     256KiB time=00:00:03.04 bitrate= 689.6kbits/s speed=0.0258x elapsed=0:01:57.85    \nframe=   75 fps=0.6 q=38.2 size=     256KiB time=00:00:03.04 bitrate= 689.6kbits/s speed=0.0257x elapsed=0:01:58.38    \nframe=   76 fps=0.6 q=43.5 size=     256KiB time=00:00:03.08 bitrate= 680.3kbits/s speed=0.0259x elapsed=0:01:58.88    \nframe=   76 fps=0.6 q=43.5 size=     256KiB time=00:00:03.08 bitrate= 680.3kbits/s speed=0.0258x elapsed=0:01:59.41    \nframe=   76 fps=0.6 q=43.5 size=     256KiB time=00:00:03.08 bitrate= 680.3kbits/s speed=0.0257x elapsed=0:01:59.93    \nframe=   76 fps=0.6 q=43.5 size=     256KiB time=00:00:03.08 bitrate= 680.3kbits/s speed=0.0256x elapsed=0:02:00.44    \nframe=   76 fps=0.6 q=43.5 size=     256KiB time=00:00:03.08 bitrate= 680.3kbits/s speed=0.0255x elapsed=0:02:00.95    \nframe=   76 fps=0.6 q=43.5 size=     256KiB time=00:00:03.08 bitrate= 680.3kbits/s speed=0.0254x elapsed=0:02:01.47    \nframe=   77 fps=0.6 q=42.8 size=     256KiB time=00:00:03.12 bitrate= 671.2kbits/s speed=0.0256x elapsed=0:02:01.98    \nframe=   77 fps=0.6 q=42.8 size=     256KiB time=00:00:03.12 bitrate= 671.2kbits/s speed=0.0255x elapsed=0:02:02.50    \nframe=   77 fps=0.6 q=42.8 size=     256KiB time=00:00:03.12 bitrate= 671.2kbits/s speed=0.0254x elapsed=0:02:03.02    \nframe=   77 fps=0.6 q=42.8 size=     256KiB time=00:00:03.12 bitrate= 671.2kbits/s speed=0.0253x elapsed=0:02:03.53    \nframe=   78 fps=0.6 q=43.8 size=     256KiB time=00:00:03.16 bitrate= 662.4kbits/s speed=0.0255x elapsed=0:02:04.05    \nframe=   79 fps=0.6 q=37.0 size=     256KiB time=00:00:03.20 bitrate= 653.8kbits/s speed=0.0258x elapsed=0:02:04.56    \nframe=   79 fps=0.6 q=37.0 size=     256KiB time=00:00:03.20 bitrate= 653.8kbits/s speed=0.0257x elapsed=0:02:05.07    \nframe=   80 fps=0.6 q=41.2 size=     256KiB time=00:00:03.25 bitrate= 645.4kbits/s speed=0.0259x elapsed=0:02:05.59    \nframe=   80 fps=0.6 q=41.2 size=     256KiB time=00:00:03.25 bitrate= 645.4kbits/s speed=0.0258x elapsed=0:02:06.10    \nframe=   80 fps=0.6 q=41.2 size=     256KiB time=00:00:03.25 bitrate= 645.4kbits/s speed=0.0257x elapsed=0:02:06.62    \nframe=   80 fps=0.6 q=41.2 size=     256KiB time=00:00:03.25 bitrate= 645.4kbits/s speed=0.0256x elapsed=0:02:07.14    \nframe=   81 fps=0.6 q=43.7 size=     256KiB time=00:00:03.29 bitrate= 637.2kbits/s speed=0.0258x elapsed=0:02:07.66    \nframe=   81 fps=0.6 q=43.7 size=     256KiB time=00:00:03.29 bitrate= 637.2kbits/s speed=0.0257x elapsed=0:02:08.17    \nframe=   81 fps=0.6 q=43.7 size=     256KiB time=00:00:03.29 bitrate= 637.2kbits/s speed=0.0256x elapsed=0:02:08.69    \nframe=   82 fps=0.6 q=43.6 size=     256KiB time=00:00:03.33 bitrate= 629.3kbits/s speed=0.0258x elapsed=0:02:09.20    \nframe=   82 fps=0.6 q=43.6 size=     256KiB time=00:00:03.33 bitrate= 629.3kbits/s speed=0.0257x elapsed=0:02:09.73    \nframe=   83 fps=0.6 q=36.8 size=     256KiB time=00:00:03.37 bitrate= 621.5kbits/s speed=0.0259x elapsed=0:02:10.23    \nframe=   84 fps=0.6 q=41.2 size=     256KiB time=00:00:03.41 bitrate= 613.9kbits/s speed=0.0261x elapsed=0:02:10.75    \nframe=   84 fps=0.6 q=41.2 size=     256KiB time=00:00:03.41 bitrate= 613.9kbits/s speed=0.026x elapsed=0:02:11.26    \nframe=   84 fps=0.6 q=41.2 size=     256KiB time=00:00:03.41 bitrate= 613.9kbits/s speed=0.0259x elapsed=0:02:11.79    \nframe=   84 fps=0.6 q=41.2 size=     256KiB time=00:00:03.41 bitrate= 613.9kbits/s speed=0.0258x elapsed=0:02:12.30    \nframe=   85 fps=0.6 q=43.6 size=     256KiB time=00:00:03.45 bitrate= 606.5kbits/s speed=0.026x elapsed=0:02:12.81    \nframe=   85 fps=0.6 q=43.6 size=     256KiB time=00:00:03.45 bitrate= 606.5kbits/s speed=0.0259x elapsed=0:02:13.32    \nframe=   85 fps=0.6 q=43.6 size=     256KiB time=00:00:03.45 bitrate= 606.5kbits/s speed=0.0258x elapsed=0:02:13.84    \nframe=   86 fps=0.6 q=43.6 size=     256KiB time=00:00:03.50 bitrate= 599.3kbits/s speed=0.026x elapsed=0:02:14.36    \nframe=   86 fps=0.6 q=43.6 size=     256KiB time=00:00:03.50 bitrate= 599.3kbits/s speed=0.0259x elapsed=0:02:14.87    \nframe=   87 fps=0.6 q=35.9 size=     256KiB time=00:00:03.54 bitrate= 592.2kbits/s speed=0.0262x elapsed=0:02:15.38    \nframe=   87 fps=0.6 q=35.9 size=     256KiB time=00:00:03.54 bitrate= 592.2kbits/s speed=0.0261x elapsed=0:02:15.91    \nframe=   88 fps=0.6 q=39.8 size=     256KiB time=00:00:03.58 bitrate= 585.4kbits/s speed=0.0263x elapsed=0:02:16.43    \nframe=   88 fps=0.6 q=39.8 size=     256KiB time=00:00:03.58 bitrate= 585.4kbits/s speed=0.0262x elapsed=0:02:16.95    \nframe=   88 fps=0.6 q=39.8 size=     256KiB time=00:00:03.58 bitrate= 585.4kbits/s speed=0.0261x elapsed=0:02:17.47    \nframe=   89 fps=0.6 q=42.8 size=     256KiB time=00:00:03.62 bitrate= 578.6kbits/s speed=0.0263x elapsed=0:02:17.98    \nframe=   89 fps=0.6 q=42.8 size=     256KiB time=00:00:03.62 bitrate= 578.6kbits/s speed=0.0262x elapsed=0:02:18.51    \nframe=   89 fps=0.6 q=42.8 size=     256KiB time=00:00:03.62 bitrate= 578.6kbits/s speed=0.0261x elapsed=0:02:19.03    \nframe=   89 fps=0.6 q=42.8 size=     256KiB time=00:00:03.62 bitrate= 578.6kbits/s speed=0.026x elapsed=0:02:19.55    \nframe=   89 fps=0.6 q=42.8 size=     256KiB time=00:00:03.62 bitrate= 578.6kbits/s speed=0.0259x elapsed=0:02:20.06    \nframe=   90 fps=0.6 q=43.4 size=     256KiB time=00:00:03.66 bitrate= 572.0kbits/s speed=0.0261x elapsed=0:02:20.58    \nframe=   90 fps=0.6 q=43.4 size=     256KiB time=00:00:03.66 bitrate= 572.0kbits/s speed=0.026x elapsed=0:02:21.09    \nframe=   91 fps=0.6 q=43.8 size=     256KiB time=00:00:03.70 bitrate= 565.6kbits/s speed=0.0262x elapsed=0:02:21.61    \nframe=   92 fps=0.6 q=37.5 size=     256KiB time=00:00:03.75 bitrate= 559.3kbits/s speed=0.0264x elapsed=0:02:22.12    \nframe=   92 fps=0.6 q=37.5 size=     256KiB time=00:00:03.75 bitrate= 559.3kbits/s speed=0.0263x elapsed=0:02:22.64    \nframe=   92 fps=0.6 q=37.5 size=     256KiB time=00:00:03.75 bitrate= 559.3kbits/s speed=0.0262x elapsed=0:02:23.15    \nframe=   92 fps=0.6 q=37.5 size=     256KiB time=00:00:03.75 bitrate= 559.3kbits/s speed=0.0261x elapsed=0:02:23.74    \nframe=   92 fps=0.6 q=37.5 size=     256KiB time=00:00:03.75 bitrate= 559.3kbits/s speed=0.026x elapsed=0:02:24.26    \nframe=   93 fps=0.6 q=41.2 size=     256KiB time=00:00:03.79 bitrate= 553.2kbits/s speed=0.0262x elapsed=0:02:24.79    \nframe=   93 fps=0.6 q=41.2 size=     256KiB time=00:00:03.79 bitrate= 553.2kbits/s speed=0.0261x elapsed=0:02:25.31    \nframe=   93 fps=0.6 q=41.2 size=     256KiB time=00:00:03.79 bitrate= 553.2kbits/s speed=0.026x elapsed=0:02:25.86    \nframe=   94 fps=0.6 q=43.8 size=     256KiB time=00:00:03.83 bitrate= 547.2kbits/s speed=0.0262x elapsed=0:02:26.37    \nframe=   94 fps=0.6 q=43.8 size=     256KiB time=00:00:03.83 bitrate= 547.2kbits/s speed=0.0261x elapsed=0:02:26.91    \nframe=   94 fps=0.6 q=43.8 size=     256KiB time=00:00:03.83 bitrate= 547.2kbits/s speed=0.026x elapsed=0:02:27.46    \nframe=   94 fps=0.6 q=43.8 size=     256KiB time=00:00:03.83 bitrate= 547.2kbits/s speed=0.0259x elapsed=0:02:27.97    \nframe=   95 fps=0.6 q=42.7 size=     256KiB time=00:00:03.87 bitrate= 541.3kbits/s speed=0.0261x elapsed=0:02:28.48    \nframe=   96 fps=0.6 q=36.0 size=     256KiB time=00:00:03.91 bitrate= 535.5kbits/s speed=0.0263x elapsed=0:02:29.02    \nframe=   96 fps=0.6 q=36.0 size=     256KiB time=00:00:03.91 bitrate= 535.5kbits/s speed=0.0262x elapsed=0:02:29.57    \nframe=   96 fps=0.6 q=36.0 size=     256KiB time=00:00:03.91 bitrate= 535.5kbits/s speed=0.0261x elapsed=0:02:30.11    \nframe=   96 fps=0.6 q=36.0 size=     256KiB time=00:00:03.91 bitrate= 535.5kbits/s speed=0.026x elapsed=0:02:30.62    \nframe=   97 fps=0.6 q=41.1 size=     256KiB time=00:00:03.95 bitrate= 529.9kbits/s speed=0.0262x elapsed=0:02:31.16    \nframe=   97 fps=0.6 q=41.1 size=     256KiB time=00:00:03.95 bitrate= 529.9kbits/s speed=0.0261x elapsed=0:02:31.68    \nframe=   98 fps=0.6 q=43.6 size=     256KiB time=00:00:04.00 bitrate= 524.4kbits/s speed=0.0263x elapsed=0:02:32.22    \nframe=   98 fps=0.6 q=43.6 size=     256KiB time=00:00:04.00 bitrate= 524.4kbits/s speed=0.0262x elapsed=0:02:32.73    \nframe=   99 fps=0.6 q=43.8 size=     256KiB time=00:00:04.04 bitrate= 519.0kbits/s speed=0.0264x elapsed=0:02:33.25    \nframe=   99 fps=0.6 q=43.8 size=     256KiB time=00:00:04.04 bitrate= 519.0kbits/s speed=0.0263x elapsed=0:02:33.79    \nframe=  100 fps=0.6 q=36.7 size=     256KiB time=00:00:04.08 bitrate= 513.7kbits/s speed=0.0265x elapsed=0:02:34.30    \nframe=  100 fps=0.6 q=36.7 size=     256KiB time=00:00:04.08 bitrate= 513.7kbits/s speed=0.0264x elapsed=0:02:34.83    \nframe=  100 fps=0.6 q=36.7 size=     256KiB time=00:00:04.08 bitrate= 513.7kbits/s speed=0.0263x elapsed=0:02:35.34    \nframe=  100 fps=0.6 q=36.7 size=     256KiB time=00:00:04.08 bitrate= 513.7kbits/s speed=0.0262x elapsed=0:02:35.85    \nframe=  100 fps=0.6 q=36.7 size=     256KiB time=00:00:04.08 bitrate= 513.7kbits/s speed=0.0261x elapsed=0:02:36.38    \nframe=  101 fps=0.6 q=42.0 size=     256KiB time=00:00:04.12 bitrate= 508.5kbits/s speed=0.0263x elapsed=0:02:36.91    \nframe=  102 fps=0.6 q=43.7 size=     256KiB time=00:00:04.16 bitrate= 503.4kbits/s speed=0.0265x elapsed=0:02:37.43    \nframe=  102 fps=0.6 q=43.7 size=     256KiB time=00:00:04.16 bitrate= 503.4kbits/s speed=0.0264x elapsed=0:02:37.95    \nframe=  102 fps=0.6 q=43.7 size=     256KiB time=00:00:04.16 bitrate= 503.4kbits/s speed=0.0263x elapsed=0:02:38.47    \nframe=  103 fps=0.6 q=43.0 size=     256KiB time=00:00:04.20 bitrate= 498.4kbits/s speed=0.0265x elapsed=0:02:39.01    \nframe=  103 fps=0.6 q=43.0 size=     256KiB time=00:00:04.20 bitrate= 498.4kbits/s speed=0.0264x elapsed=0:02:39.53    \nframe=  103 fps=0.6 q=43.0 size=     256KiB time=00:00:04.20 bitrate= 498.4kbits/s speed=0.0263x elapsed=0:02:40.08    \nframe=  104 fps=0.6 q=42.9 size=     512KiB time=00:00:04.25 bitrate= 987.0kbits/s speed=0.0265x elapsed=0:02:40.67    \nframe=  104 fps=0.6 q=42.9 size=     512KiB time=00:00:04.25 bitrate= 987.0kbits/s speed=0.0264x elapsed=0:02:41.20    \nframe=  104 fps=0.6 q=42.9 size=     512KiB time=00:00:04.25 bitrate= 987.0kbits/s speed=0.0263x elapsed=0:02:41.75    \nframe=  104 fps=0.6 q=42.9 size=     512KiB time=00:00:04.25 bitrate= 987.0kbits/s speed=0.0262x elapsed=0:02:42.32    \nframe=  105 fps=0.6 q=35.9 size=     512KiB time=00:00:04.29 bitrate= 977.4kbits/s speed=0.0264x elapsed=0:02:42.84    \nframe=  105 fps=0.6 q=35.9 size=     512KiB time=00:00:04.29 bitrate= 977.4kbits/s speed=0.0263x elapsed=0:02:43.36    \nframe=  106 fps=0.6 q=41.1 size=     512KiB time=00:00:04.33 bitrate= 968.0kbits/s speed=0.0264x elapsed=0:02:43.88    \nframe=  107 fps=0.7 q=42.8 size=     512KiB time=00:00:04.37 bitrate= 958.8kbits/s speed=0.0266x elapsed=0:02:44.44    \nframe=  107 fps=0.6 q=42.8 size=     512KiB time=00:00:04.37 bitrate= 958.8kbits/s speed=0.0265x elapsed=0:02:44.98    \nframe=  107 fps=0.6 q=42.8 size=     512KiB time=00:00:04.37 bitrate= 958.8kbits/s speed=0.0264x elapsed=0:02:45.52    \nframe=  107 fps=0.6 q=42.8 size=     512KiB time=00:00:04.37 bitrate= 958.8kbits/s speed=0.0263x elapsed=0:02:46.07    \nframe=  107 fps=0.6 q=42.8 size=     512KiB time=00:00:04.37 bitrate= 958.8kbits/s speed=0.0263x elapsed=0:02:46.59    \nframe=  107 fps=0.6 q=42.8 size=     512KiB time=00:00:04.37 bitrate= 958.8kbits/s speed=0.0262x elapsed=0:02:47.11    \nframe=  108 fps=0.6 q=43.6 size=     512KiB time=00:00:04.41 bitrate= 949.7kbits/s speed=0.0263x elapsed=0:02:47.67    \nframe=  108 fps=0.6 q=43.6 size=     512KiB time=00:00:04.41 bitrate= 949.7kbits/s speed=0.0263x elapsed=0:02:48.18    \nframe=  108 fps=0.6 q=43.6 size=     512KiB time=00:00:04.41 bitrate= 949.7kbits/s speed=0.0262x elapsed=0:02:48.70    \nframe=  109 fps=0.6 q=36.6 size=     512KiB time=00:00:04.45 bitrate= 940.9kbits/s speed=0.0263x elapsed=0:02:49.22    \nframe=  109 fps=0.6 q=36.6 size=     512KiB time=00:00:04.45 bitrate= 940.9kbits/s speed=0.0263x elapsed=0:02:49.79    \nframe=  109 fps=0.6 q=36.6 size=     512KiB time=00:00:04.45 bitrate= 940.9kbits/s speed=0.0262x elapsed=0:02:50.34    \nframe=  109 fps=0.6 q=36.6 size=     512KiB time=00:00:04.45 bitrate= 940.9kbits/s speed=0.0261x elapsed=0:02:50.88    \nframe=  110 fps=0.6 q=40.3 size=     512KiB time=00:00:04.50 bitrate= 932.1kbits/s speed=0.0263x elapsed=0:02:51.42    \nframe=  110 fps=0.6 q=40.3 size=     512KiB time=00:00:04.50 bitrate= 932.1kbits/s speed=0.0262x elapsed=0:02:51.96    \nframe=  110 fps=0.6 q=40.3 size=     512KiB time=00:00:04.50 bitrate= 932.1kbits/s speed=0.0261x elapsed=0:02:52.49    \nframe=  110 fps=0.6 q=40.3 size=     512KiB time=00:00:04.50 bitrate= 932.1kbits/s speed=0.026x elapsed=0:02:53.02    \nframe=  110 fps=0.6 q=40.3 size=     512KiB time=00:00:04.50 bitrate= 932.1kbits/s speed=0.0259x elapsed=0:02:53.54    \nframe=  111 fps=0.6 q=43.5 size=     512KiB time=00:00:04.54 bitrate= 923.6kbits/s speed=0.0261x elapsed=0:02:54.12    \nframe=  112 fps=0.6 q=42.4 size=     512KiB time=00:00:04.58 bitrate= 915.2kbits/s speed=0.0262x elapsed=0:02:54.64    \nframe=  113 fps=0.6 q=36.3 size=     512KiB time=00:00:04.62 bitrate= 907.0kbits/s speed=0.0264x elapsed=0:02:55.18    \nframe=  113 fps=0.6 q=36.3 size=     512KiB time=00:00:04.62 bitrate= 907.0kbits/s speed=0.0263x elapsed=0:02:55.74    \nframe=  115 fps=0.7 q=41.3 size=     512KiB time=00:00:04.70 bitrate= 890.9kbits/s speed=0.0267x elapsed=0:02:56.28    \nframe=  115 fps=0.7 q=41.3 size=     512KiB time=00:00:04.70 bitrate= 890.9kbits/s speed=0.0266x elapsed=0:02:56.81    \nframe=  116 fps=0.7 q=41.7 size=     512KiB time=00:00:04.75 bitrate= 883.1kbits/s speed=0.0268x elapsed=0:02:57.32    \nframe=  117 fps=0.7 q=41.6 size=     512KiB time=00:00:04.79 bitrate= 875.4kbits/s speed=0.0269x elapsed=0:02:57.84    \nframe=  118 fps=0.7 q=36.0 size=     512KiB time=00:00:04.83 bitrate= 867.9kbits/s speed=0.0271x elapsed=0:02:58.41    \nframe=  119 fps=0.7 q=36.5 size=     512KiB time=00:00:04.87 bitrate= 860.4kbits/s speed=0.0272x elapsed=0:02:58.94    \nframe=  120 fps=0.7 q=42.3 size=     512KiB time=00:00:04.91 bitrate= 853.2kbits/s speed=0.0274x elapsed=0:02:59.49    \nframe=  120 fps=0.7 q=42.3 size=     512KiB time=00:00:04.91 bitrate= 853.2kbits/s speed=0.0273x elapsed=0:03:00.04    \nframe=  120 fps=0.7 q=42.3 size=     512KiB time=00:00:04.91 bitrate= 853.2kbits/s speed=0.0272x elapsed=0:03:00.62    \nframe=  122 fps=0.7 q=42.6 size=     512KiB time=00:00:05.00 bitrate= 838.9kbits/s speed=0.0276x elapsed=0:03:01.13    \nframe=  123 fps=0.7 q=35.6 size=     512KiB time=00:00:05.04 bitrate= 832.0kbits/s speed=0.0278x elapsed=0:03:01.65    \nframe=  125 fps=0.7 q=43.0 size=     512KiB time=00:00:05.12 bitrate= 818.5kbits/s speed=0.0281x elapsed=0:03:02.18    \nframe=  127 fps=0.7 q=36.0 size=     512KiB time=00:00:05.20 bitrate= 805.4kbits/s speed=0.0285x elapsed=0:03:02.71    \nframe=  128 fps=0.7 q=39.2 size=     512KiB time=00:00:05.25 bitrate= 799.0kbits/s speed=0.0287x elapsed=0:03:03.21    \nframe=  129 fps=0.7 q=41.5 size=     512KiB time=00:00:05.29 bitrate= 792.7kbits/s speed=0.0288x elapsed=0:03:03.73    \nframe=  130 fps=0.7 q=41.5 size=     512KiB time=00:00:05.33 bitrate= 786.5kbits/s speed=0.0289x elapsed=0:03:04.25    \nframe=  132 fps=0.7 q=34.8 size=     512KiB time=00:00:05.41 bitrate= 774.4kbits/s speed=0.0293x elapsed=0:03:04.78    \nframe=  133 fps=0.7 q=38.7 size=     512KiB time=00:00:05.45 bitrate= 768.5kbits/s speed=0.0295x elapsed=0:03:05.30    \nframe=  134 fps=0.7 q=41.7 size=     512KiB time=00:00:05.50 bitrate= 762.7kbits/s speed=0.0296x elapsed=0:03:05.82    \nframe=  136 fps=0.7 q=42.6 size=     512KiB time=00:00:05.58 bitrate= 751.3kbits/s speed=0.03x elapsed=0:03:06.35    \nframe=  137 fps=0.7 q=35.5 size=     512KiB time=00:00:05.62 bitrate= 745.7kbits/s speed=0.0301x elapsed=0:03:06.85    \nframe=  139 fps=0.7 q=42.5 size=     512KiB time=00:00:05.70 bitrate= 734.8kbits/s speed=0.0305x elapsed=0:03:07.38    \nframe=  140 fps=0.7 q=41.5 size=     512KiB time=00:00:05.75 bitrate= 729.5kbits/s speed=0.0306x elapsed=0:03:07.90    \nframe=  141 fps=0.7 q=41.7 size=     512KiB time=00:00:05.79 bitrate= 724.3kbits/s speed=0.0307x elapsed=0:03:08.42    \nframe=  144 fps=0.8 q=42.4 size=     512KiB time=00:00:05.91 bitrate= 709.0kbits/s speed=0.0313x elapsed=0:03:08.94    \nframe=  145 fps=0.8 q=41.3 size=     512KiB time=00:00:05.95 bitrate= 704.0kbits/s speed=0.0315x elapsed=0:03:09.45    \nframe=  147 fps=0.8 q=35.5 size=     512KiB time=00:00:06.04 bitrate= 694.3kbits/s speed=0.0318x elapsed=0:03:09.97    \nframe=  148 fps=0.8 q=39.6 size=     512KiB time=00:00:06.08 bitrate= 689.5kbits/s speed=0.0319x elapsed=0:03:10.49    \nframe=  149 fps=0.8 q=42.6 size=     512KiB time=00:00:06.12 bitrate= 684.8kbits/s speed=0.0321x elapsed=0:03:10.99    \nframe=  150 fps=0.8 q=41.6 size=     512KiB time=00:00:06.16 bitrate= 680.2kbits/s speed=0.0322x elapsed=0:03:11.52    \nframe=  152 fps=0.8 q=39.4 size=     512KiB time=00:00:06.25 bitrate= 671.1kbits/s speed=0.0325x elapsed=0:03:12.05    \nframe=  153 fps=0.8 q=42.4 size=     512KiB time=00:00:06.29 bitrate= 666.7kbits/s speed=0.0327x elapsed=0:03:12.56    \nframe=  154 fps=0.8 q=41.5 size=     512KiB time=00:00:06.33 bitrate= 662.3kbits/s speed=0.0328x elapsed=0:03:13.08    \nframe=  155 fps=0.8 q=41.7 size=     512KiB time=00:00:06.37 bitrate= 658.0kbits/s speed=0.0329x elapsed=0:03:13.59    \nframe=  157 fps=0.8 q=39.5 size=     768KiB time=00:00:06.45 bitrate= 974.2kbits/s speed=0.0333x elapsed=0:03:14.11    \nframe=  158 fps=0.8 q=41.7 size=     768KiB time=00:00:06.50 bitrate= 968.0kbits/s speed=0.0334x elapsed=0:03:14.62    \nframe=  159 fps=0.8 q=41.6 size=     768KiB time=00:00:06.54 bitrate= 961.8kbits/s speed=0.0335x elapsed=0:03:15.14    \nframe=  160 fps=0.8 q=36.1 size=     768KiB time=00:00:06.58 bitrate= 955.7kbits/s speed=0.0336x elapsed=0:03:15.65    \nframe=  162 fps=0.8 q=42.4 size=     768KiB time=00:00:06.66 bitrate= 943.8kbits/s speed=0.034x elapsed=0:03:16.17    \nframe=  164 fps=0.8 q=35.5 size=     768KiB time=00:00:06.75 bitrate= 932.1kbits/s speed=0.0343x elapsed=0:03:16.69    \nframe=  165 fps=0.8 q=39.5 size=     768KiB time=00:00:06.79 bitrate= 926.4kbits/s speed=0.0344x elapsed=0:03:17.21    \nframe=  166 fps=0.8 q=41.4 size=     768KiB time=00:00:06.83 bitrate= 920.8kbits/s speed=0.0346x elapsed=0:03:17.73    \nframe=  168 fps=0.8 q=35.5 size=     768KiB time=00:00:06.91 bitrate= 909.7kbits/s speed=0.0349x elapsed=0:03:18.25    \nframe=  170 fps=0.9 q=41.3 size=     768KiB time=00:00:07.00 bitrate= 898.8kbits/s speed=0.0352x elapsed=0:03:18.77    \nframe=  170 fps=0.9 q=41.3 size=     768KiB time=00:00:07.00 bitrate= 898.8kbits/s speed=0.0351x elapsed=0:03:19.29    \nframe=  172 fps=0.9 q=41.0 size=     768KiB time=00:00:07.08 bitrate= 888.3kbits/s speed=0.0355x elapsed=0:03:19.79    \nframe=  173 fps=0.9 q=35.8 size=     768KiB time=00:00:07.12 bitrate= 883.1kbits/s speed=0.0356x elapsed=0:03:20.32    \nframe=  174 fps=0.9 q=39.0 size=     768KiB time=00:00:07.16 bitrate= 877.9kbits/s speed=0.0357x elapsed=0:03:20.84    \nframe=  175 fps=0.9 q=41.7 size=     768KiB time=00:00:07.20 bitrate= 872.9kbits/s speed=0.0358x elapsed=0:03:21.37    \nframe=  177 fps=0.9 q=41.5 size=     768KiB time=00:00:07.29 bitrate= 862.9kbits/s speed=0.0361x elapsed=0:03:21.90    \nframe=  178 fps=0.9 q=35.8 size=     768KiB time=00:00:07.33 bitrate= 858.0kbits/s speed=0.0362x elapsed=0:03:22.40    \nframe=  179 fps=0.9 q=39.6 size=     768KiB time=00:00:07.37 bitrate= 853.1kbits/s speed=0.0363x elapsed=0:03:22.92    \nframe=  181 fps=0.9 q=42.8 size=     768KiB time=00:00:07.45 bitrate= 843.6kbits/s speed=0.0367x elapsed=0:03:23.45    \nframe=  183 fps=0.9 q=38.7 size=     768KiB time=00:00:07.54 bitrate= 834.3kbits/s speed=0.037x elapsed=0:03:23.97    \nframe=  184 fps=0.9 q=41.4 size=     768KiB time=00:00:07.58 bitrate= 829.7kbits/s speed=0.0371x elapsed=0:03:24.48    \nframe=  185 fps=0.9 q=41.7 size=     768KiB time=00:00:07.62 bitrate= 825.2kbits/s speed=0.0372x elapsed=0:03:24.99    \nframe=  187 fps=0.9 q=35.9 size=     768KiB time=00:00:07.70 bitrate= 816.2kbits/s speed=0.0375x elapsed=0:03:25.51    \nframe=  188 fps=0.9 q=40.3 size=     768KiB time=00:00:07.75 bitrate= 811.8kbits/s speed=0.0376x elapsed=0:03:26.03    \nframe=  189 fps=0.9 q=42.6 size=     768KiB time=00:00:07.79 bitrate= 807.5kbits/s speed=0.0377x elapsed=0:03:26.55    \nframe=  191 fps=0.9 q=40.4 size=     768KiB time=00:00:07.87 bitrate= 799.0kbits/s speed=0.038x elapsed=0:03:27.05    \nframe=  191 fps=0.9 q=40.4 size=     768KiB time=00:00:07.87 bitrate= 799.0kbits/s speed=0.0379x elapsed=0:03:27.58    \nframe=  193 fps=0.9 q=42.6 size=     768KiB time=00:00:07.95 bitrate= 790.6kbits/s speed=0.0382x elapsed=0:03:28.09    \nframe=  194 fps=0.9 q=35.6 size=     768KiB time=00:00:08.00 bitrate= 786.5kbits/s speed=0.0383x elapsed=0:03:28.62    \nframe=  195 fps=0.9 q=36.4 size=     768KiB time=00:00:08.04 bitrate= 782.4kbits/s speed=0.0385x elapsed=0:03:29.12    \nframe=  196 fps=0.9 q=41.9 size=     768KiB time=00:00:08.08 bitrate= 778.4kbits/s speed=0.0386x elapsed=0:03:29.66    \nframe=  197 fps=0.9 q=42.6 size=     768KiB time=00:00:08.12 bitrate= 774.4kbits/s speed=0.0387x elapsed=0:03:30.18    \nframe=  198 fps=0.9 q=42.8 size=     768KiB time=00:00:08.16 bitrate= 770.4kbits/s speed=0.0388x elapsed=0:03:30.68    \nframe=  199 fps=0.9 q=36.1 size=     768KiB time=00:00:08.20 bitrate= 766.5kbits/s speed=0.0389x elapsed=0:03:31.20    \nframe=  202 fps=1.0 q=43.8 size=     768KiB time=00:00:08.33 bitrate= 755.0kbits/s speed=0.0394x elapsed=0:03:31.72    \nframe=  203 fps=1.0 q=42.9 size=     768KiB time=00:00:08.33 bitrate= 755.0kbits/s speed=0.0393x elapsed=0:03:32.23    \nframe=  204 fps=1.0 q=36.3 size=     768KiB time=00:00:08.41 bitrate= 747.5kbits/s speed=0.0396x elapsed=0:03:32.75    \nframe=  205 fps=1.0 q=40.9 size=    1024KiB time=00:00:08.45 bitrate= 991.8kbits/s speed=0.0397x elapsed=0:03:33.26    \nframe=  206 fps=1.0 q=43.0 size=    1024KiB time=00:00:08.50 bitrate= 986.9kbits/s speed=0.0398x elapsed=0:03:33.78    \nframe=  208 fps=1.0 q=36.1 size=    1024KiB time=00:00:08.58 bitrate= 977.4kbits/s speed=0.0401x elapsed=0:03:34.29    \nframe=  209 fps=1.0 q=40.6 size=    1024KiB time=00:00:08.62 bitrate= 972.6kbits/s speed=0.0401x elapsed=0:03:34.81    \nframe=  211 fps=1.0 q=42.7 size=    1024KiB time=00:00:08.70 bitrate= 963.3kbits/s speed=0.0404x elapsed=0:03:35.33    \nframe=  212 fps=1.0 q=35.8 size=    1024KiB time=00:00:08.75 bitrate= 958.7kbits/s speed=0.0405x elapsed=0:03:35.87    \nframe=  213 fps=1.0 q=40.2 size=    1024KiB time=00:00:08.79 bitrate= 954.2kbits/s speed=0.0406x elapsed=0:03:36.39    \nframe=  214 fps=1.0 q=42.9 size=    1024KiB time=00:00:08.83 bitrate= 949.7kbits/s speed=0.0407x elapsed=0:03:36.90    \nframe=  216 fps=1.0 q=35.6 size=    1024KiB time=00:00:08.91 bitrate= 940.8kbits/s speed=0.041x elapsed=0:03:37.42    \nframe=  217 fps=1.0 q=38.8 size=    1024KiB time=00:00:08.95 bitrate= 936.4kbits/s speed=0.0411x elapsed=0:03:37.93    \nframe=  219 fps=1.0 q=41.8 size=    1024KiB time=00:00:09.04 bitrate= 927.8kbits/s speed=0.0414x elapsed=0:03:38.46    \nframe=  221 fps=1.0 q=35.2 size=    1024KiB time=00:00:09.12 bitrate= 919.3kbits/s speed=0.0417x elapsed=0:03:38.97    \nframe=  222 fps=1.0 q=36.2 size=    1024KiB time=00:00:09.16 bitrate= 915.2kbits/s speed=0.0418x elapsed=0:03:39.49    \nframe=  224 fps=1.0 q=40.9 size=    1024KiB time=00:00:09.25 bitrate= 906.9kbits/s speed=0.042x elapsed=0:03:40.01    \nframe=  226 fps=1.0 q=35.2 size=    1024KiB time=00:00:09.33 bitrate= 898.8kbits/s speed=0.0423x elapsed=0:03:40.53    \nframe=  228 fps=1.0 q=41.9 size=    1024KiB time=00:00:09.41 bitrate= 890.9kbits/s speed=0.0426x elapsed=0:03:41.07    \nframe=  229 fps=1.0 q=40.1 size=    1024KiB time=00:00:09.45 bitrate= 886.9kbits/s speed=0.0427x elapsed=0:03:41.60    \nframe=  231 fps=1.0 q=35.2 size=    1024KiB time=00:00:09.54 bitrate= 879.2kbits/s speed=0.043x elapsed=0:03:42.12    \nframe=  233 fps=1.0 q=40.0 size=    1024KiB time=00:00:09.62 bitrate= 871.6kbits/s speed=0.0432x elapsed=0:03:42.64    \nframe=  235 fps=1.1 q=38.3 size=    1024KiB time=00:00:09.70 bitrate= 864.1kbits/s speed=0.0435x elapsed=0:03:43.15    \nframe=  236 fps=1.1 q=35.7 size=    1024KiB time=00:00:09.75 bitrate= 860.4kbits/s speed=0.0436x elapsed=0:03:43.68    \nframe=  239 fps=1.1 q=34.7 size=    1024KiB time=00:00:09.87 bitrate= 849.5kbits/s speed=0.044x elapsed=0:03:44.19    \n[mp4 @ 000001fb7496a280] Starting second pass: moving the moov atom to the beginning of the file\n[out#0/mp4 @ 000001fb7496a180] video:1210KiB audio:0KiB subtitle:0KiB other streams:0KiB global headers:2KiB muxing overhead: 0.509743%\nframe=  240 fps=1.1 q=34.6 Lsize=    1216KiB time=00:00:09.91 bitrate=1004.4kbits/s speed=0.0442x elapsed=0:03:44.35    \nx265 [info]: frame I:      1, Avg QP:38.84  kb/s: 6264.96 \nx265 [info]: frame P:     54, Avg QP:36.58  kb/s: 3052.18 \nx265 [info]: frame B:    185, Avg QP:41.76  kb/s: 359.76  \nx265 [info]: Weighted P-Frames: Y:0.0% UV:0.0%\n\nencoded 240 frames in 224.26s (1.07 fps), 990.16 kb/s, Avg QP:40.58\n",
  "seconds": 224.5665168762207,
  "probe_out": {}
}